<?xml version="1.0" standalone="no"?>
<!DOCTYPE svg PUBLIC "-//W3C//DTD SVG 20010904//EN"
 "http://www.w3.org/TR/2001/REC-SVG-20010904/DTD/svg10.dtd">
<svg version="1.0" xmlns="http://www.w3.org/2000/svg"
 width="1200.000000pt" height="1200.000000pt" viewBox="0 0 1200.000000 1200.000000"
 preserveAspectRatio="xMidYMid meet">

<g transform="translate(0.000000,1200.000000) scale(0.100000,-0.100000)"
fill="#6366f1" stroke="none">
<path d="M5068 10804 c-3 -3 5 -40 18 -82 14 -42 63 -201 110 -352 47 -151
114 -365 149 -475 34 -110 91 -290 125 -400 34 -110 86 -274 115 -365 30 -91
81 -255 115 -365 33 -110 65 -211 70 -225 12 -33 129 -403 175 -555 20 -66 59
-187 85 -270 48 -145 78 -243 196 -635 31 -102 85 -275 119 -385 35 -110 89
-281 120 -380 31 -99 64 -205 75 -235 10 -30 37 -118 60 -195 23 -77 48 -158
56 -180 8 -22 50 -157 95 -300 44 -143 96 -309 116 -370 19 -60 39 -126 44
-145 24 -82 105 -339 165 -523 36 -108 100 -311 143 -450 43 -138 131 -421
195 -627 65 -206 135 -433 157 -505 87 -280 102 -326 109 -330 8 -5 115 52
243 128 43 26 80 47 82 47 3 0 22 10 43 23 20 13 62 37 92 54 200 109 629 361
739 435 77 52 265 193 311 234 168 150 214 194 326 314 312 334 562 722 726
1125 109 269 123 307 198 555 18 58 56 182 86 275 51 163 177 566 326 1045 38
124 105 340 149 480 44 140 107 343 140 450 33 107 91 292 129 410 37 118 87
276 110 350 23 74 75 241 115 370 113 362 127 412 118 421 -8 8 -180 78 -920
375 -238 95 -440 174 -449 176 -11 2 -21 -9 -31 -37 -25 -72 -246 -770 -419
-1325 -47 -151 -123 -392 -169 -535 -87 -271 -173 -544 -198 -630 -8 -27 -46
-149 -85 -270 -39 -121 -91 -285 -116 -365 -25 -80 -77 -246 -116 -370 -39
-124 -77 -245 -85 -270 -7 -25 -29 -96 -49 -157 -73 -230 -110 -344 -191 -605
-46 -146 -100 -317 -120 -380 -20 -62 -41 -128 -47 -146 -6 -19 -14 -30 -18
-25 -8 8 -54 144 -104 303 -15 47 -44 139 -66 205 -21 66 -93 293 -160 505
-67 212 -153 482 -190 600 -99 310 -179 563 -207 655 -13 44 -54 172 -90 285
-36 113 -96 304 -133 425 -37 121 -84 270 -103 330 -51 157 -149 469 -267 845
-56 179 -130 415 -165 525 -35 110 -102 324 -150 475 -190 605 -258 820 -294
930 l-37 115 -780 3 c-429 1 -783 0 -786 -4z"/>
<path d="M4270 10601 c-335 -128 -437 -167 -585 -222 -88 -33 -257 -98 -375
-144 -118 -45 -282 -108 -365 -140 -82 -31 -217 -83 -300 -115 -198 -77 -299
-116 -480 -185 -82 -31 -177 -68 -210 -80 -56 -22 -180 -69 -625 -240 -96 -37
-292 -111 -435 -165 -143 -54 -279 -106 -303 -115 l-42 -17 1 -1632 1 -1631
23 -195 c45 -372 98 -586 229 -934 31 -80 83 -201 117 -268 60 -120 211 -373
270 -453 218 -295 358 -451 585 -650 231 -204 384 -305 904 -600 119 -68 261
-149 315 -180 83 -49 278 -158 570 -320 28 -15 86 -49 130 -75 44 -26 105 -61
135 -78 105 -58 126 -70 360 -202 301 -171 499 -283 680 -385 80 -45 222 -126
315 -180 299 -172 314 -179 341 -166 13 6 133 73 267 149 133 76 269 154 302
172 129 71 412 231 485 274 30 18 150 86 265 151 116 65 216 124 223 130 9 8
7 26 -12 85 -60 184 -194 607 -306 965 -67 215 -154 489 -192 610 -39 121 -83
263 -98 315 -16 52 -54 174 -85 270 -65 199 -92 285 -132 420 l-29 95 -783 0
c-431 0 -785 -3 -787 -6 -2 -4 14 -62 35 -130 22 -68 73 -232 114 -364 107
-341 175 -558 282 -895 121 -381 148 -470 142 -477 -5 -5 -52 21 -447 243 -96
54 -184 104 -195 110 -382 212 -465 259 -685 389 -63 37 -203 117 -310 178
-488 275 -642 386 -879 630 -165 170 -278 332 -396 570 -124 253 -199 508
-225 767 -7 80 -10 464 -8 1249 l3 1133 65 28 c57 25 161 66 610 240 52 20
203 78 335 129 132 50 255 98 273 106 48 22 59 19 71 -17 5 -18 30 -98 55
-178 24 -80 72 -233 105 -340 68 -221 208 -679 240 -787 14 -48 27 -73 39 -76
9 -3 365 -5 790 -6 607 0 772 2 772 12 0 13 -43 155 -84 277 -13 41 -56 176
-94 300 -39 124 -91 290 -117 370 -26 80 -78 246 -117 370 -38 124 -126 405
-195 625 -69 220 -135 434 -148 475 -13 41 -57 183 -98 315 -66 209 -148 474
-163 528 -3 9 -8 17 -12 16 -4 0 -63 -22 -132 -48z"/>
</g>
</svg>
